<svg width="237" height="43" viewBox="0 0 237 43" fill="none" xmlns="http://www.w3.org/2000/svg">
<path d="M57.4648 24.6844H62.7207C62.6152 26.4071 62.1406 27.9364 61.2969 29.2723C60.4648 30.6083 59.2988 31.6512 57.7988 32.4012C56.3105 33.1512 54.5176 33.5262 52.4199 33.5262C50.7793 33.5262 49.3086 33.245 48.0078 32.6825C46.707 32.1083 45.5938 31.288 44.668 30.2216C43.7539 29.1552 43.0566 27.8661 42.5762 26.3544C42.0957 24.8427 41.8555 23.1493 41.8555 21.2743V19.4989C41.8555 17.6239 42.1016 15.9305 42.5938 14.4188C43.0977 12.8954 43.8125 11.6005 44.7383 10.5341C45.6758 9.46765 46.7949 8.64734 48.0957 8.07312C49.3965 7.4989 50.8496 7.21179 52.4551 7.21179C54.5879 7.21179 56.3867 7.59851 57.8516 8.37195C59.3281 9.14539 60.4707 10.2118 61.2793 11.5712C62.0996 12.9305 62.5918 14.4774 62.7559 16.2118H57.4824C57.4238 15.1805 57.2188 14.3075 56.8672 13.5927C56.5156 12.8661 55.9824 12.3212 55.2676 11.9579C54.5645 11.5829 53.627 11.3954 52.4551 11.3954C51.5762 11.3954 50.8086 11.5594 50.1523 11.8876C49.4961 12.2157 48.9453 12.7137 48.5 13.3817C48.0547 14.0497 47.7207 14.8934 47.498 15.913C47.2871 16.9208 47.1816 18.1044 47.1816 19.4637V21.2743C47.1816 22.5985 47.2812 23.7645 47.4805 24.7723C47.6797 25.7684 47.9844 26.6122 48.3945 27.3036C48.8164 27.9833 49.3555 28.4989 50.0117 28.8505C50.6797 29.1903 51.4824 29.3602 52.4199 29.3602C53.5215 29.3602 54.4297 29.1844 55.1445 28.8329C55.8594 28.4813 56.4043 27.9598 56.7793 27.2684C57.166 26.577 57.3945 25.7157 57.4648 24.6844ZM70.8066 6.17468V33.1747H65.7441V6.17468H70.8066ZM70.0859 22.9969H68.6973C68.709 21.6727 68.8848 20.454 69.2246 19.3407C69.5645 18.2157 70.0508 17.243 70.6836 16.4227C71.3164 15.5907 72.0723 14.9462 72.9512 14.4891C73.8418 14.0321 74.8262 13.8036 75.9043 13.8036C76.8418 13.8036 77.6914 13.9384 78.4531 14.2079C79.2266 14.4657 79.8887 14.8876 80.4395 15.4735C81.002 16.0477 81.4355 16.8036 81.7402 17.7411C82.0449 18.6786 82.1973 19.8153 82.1973 21.1512V33.1747H77.0996V21.1161C77.0996 20.2723 76.9766 19.6102 76.7305 19.1298C76.4961 18.6376 76.1504 18.2919 75.6934 18.0927C75.248 17.8817 74.6973 17.7762 74.041 17.7762C73.3145 17.7762 72.6934 17.911 72.1777 18.1805C71.6738 18.4501 71.2695 18.8251 70.9648 19.3055C70.6602 19.7743 70.4375 20.3251 70.2969 20.9579C70.1562 21.5907 70.0859 22.2704 70.0859 22.9969ZM94.8008 33.5262C93.3242 33.5262 92 33.2919 90.8281 32.8231C89.6562 32.3427 88.6602 31.6805 87.8398 30.8368C87.0312 29.993 86.4102 29.0145 85.9766 27.9012C85.543 26.7762 85.3262 25.5809 85.3262 24.3153V23.6122C85.3262 22.1708 85.5312 20.8524 85.9414 19.6571C86.3516 18.4618 86.9375 17.4247 87.6992 16.5458C88.4727 15.6669 89.4102 14.993 90.5117 14.5243C91.6133 14.0438 92.8555 13.8036 94.2383 13.8036C95.5859 13.8036 96.7812 14.0262 97.8242 14.4716C98.8672 14.9169 99.7402 15.5497 100.443 16.37C101.158 17.1903 101.697 18.1747 102.061 19.3231C102.424 20.4598 102.605 21.7255 102.605 23.12V25.2294H87.4883V21.8544H97.6309V21.4677C97.6309 20.7645 97.502 20.1376 97.2441 19.5868C96.998 19.0243 96.623 18.579 96.1191 18.2509C95.6152 17.9227 94.9707 17.7587 94.1855 17.7587C93.5176 17.7587 92.9434 17.9052 92.4629 18.1981C91.9824 18.4911 91.5898 18.9012 91.2852 19.4286C90.9922 19.9559 90.7695 20.577 90.6172 21.2919C90.4766 21.995 90.4062 22.7684 90.4062 23.6122V24.3153C90.4062 25.077 90.5117 25.7802 90.7227 26.4247C90.9453 27.0692 91.2559 27.6259 91.6543 28.0946C92.0645 28.5634 92.5566 28.9266 93.1309 29.1844C93.7168 29.4423 94.3789 29.5712 95.1172 29.5712C96.0312 29.5712 96.8809 29.3954 97.666 29.0438C98.4629 28.6805 99.1484 28.1356 99.7227 27.4091L102.184 30.0809C101.785 30.6552 101.24 31.2059 100.549 31.7333C99.8691 32.2606 99.0488 32.6942 98.0879 33.0341C97.127 33.3622 96.0312 33.5262 94.8008 33.5262ZM113.346 29.5712C113.967 29.5712 114.518 29.454 114.998 29.2196C115.479 28.9735 115.854 28.6337 116.123 28.2001C116.404 27.7548 116.551 27.2333 116.562 26.6356H121.326C121.314 27.9716 120.957 29.161 120.254 30.204C119.551 31.2352 118.607 32.0497 117.424 32.6473C116.24 33.2333 114.916 33.5262 113.451 33.5262C111.975 33.5262 110.686 33.2802 109.584 32.788C108.494 32.2958 107.586 31.6161 106.859 30.7489C106.133 29.87 105.588 28.8505 105.225 27.6903C104.861 26.5184 104.68 25.2645 104.68 23.9286V23.4188C104.68 22.0712 104.861 20.8173 105.225 19.6571C105.588 18.4852 106.133 17.4657 106.859 16.5985C107.586 15.7196 108.494 15.0341 109.584 14.5419C110.674 14.0497 111.951 13.8036 113.416 13.8036C114.975 13.8036 116.34 14.1024 117.512 14.7001C118.695 15.2977 119.621 16.1532 120.289 17.2665C120.969 18.368 121.314 19.6747 121.326 21.1864H116.562C116.551 20.5536 116.416 19.9794 116.158 19.4637C115.912 18.9481 115.549 18.538 115.068 18.2333C114.6 17.9169 114.02 17.7587 113.328 17.7587C112.59 17.7587 111.986 17.9169 111.518 18.2333C111.049 18.538 110.686 18.9598 110.428 19.4989C110.17 20.0262 109.988 20.6298 109.883 21.3094C109.789 21.9774 109.742 22.6805 109.742 23.4188V23.9286C109.742 24.6669 109.789 25.3759 109.883 26.0555C109.977 26.7352 110.152 27.3387 110.41 27.8661C110.68 28.3934 111.049 28.8094 111.518 29.1141C111.986 29.4188 112.596 29.5712 113.346 29.5712ZM129.324 6.1571V33.1747H124.262V6.1571H129.324ZM141.312 14.1552L133.051 23.577L128.621 28.0594L126.775 24.4032L130.291 19.9384L135.23 14.1552H141.312ZM136.057 33.1747L130.432 24.3856L133.93 21.327L141.893 33.1747H136.057ZM157.713 29.3778L164.639 34.8622L161.316 37.745L154.496 32.2606L157.713 29.3778ZM164.814 19.7802V20.993C164.814 22.9384 164.551 24.6844 164.023 26.2313C163.508 27.7782 162.764 29.0966 161.791 30.1864C160.818 31.2645 159.67 32.0907 158.346 32.6649C157.021 33.2391 155.551 33.5262 153.934 33.5262C152.328 33.5262 150.857 33.2391 149.521 32.6649C148.186 32.0907 147.031 31.2645 146.059 30.1864C145.086 29.0966 144.33 27.7782 143.791 26.2313C143.264 24.6844 143 22.9384 143 20.993V19.7802C143 17.8231 143.264 16.077 143.791 14.5419C144.33 12.995 145.08 11.6766 146.041 10.5868C147.002 9.49695 148.15 8.66492 149.486 8.0907C150.822 7.51648 152.293 7.22937 153.898 7.22937C155.516 7.22937 156.986 7.51648 158.311 8.0907C159.646 8.66492 160.801 9.49695 161.773 10.5868C162.746 11.6766 163.496 12.995 164.023 14.5419C164.551 16.077 164.814 17.8231 164.814 19.7802ZM159.488 20.993V19.745C159.488 18.3856 159.359 17.1903 159.102 16.1591C158.855 15.1278 158.492 14.2606 158.012 13.5575C157.543 12.8544 156.963 12.327 156.271 11.9755C155.58 11.6122 154.789 11.4305 153.898 11.4305C153.008 11.4305 152.217 11.6122 151.525 11.9755C150.834 12.327 150.254 12.8544 149.785 13.5575C149.316 14.2606 148.959 15.1278 148.713 16.1591C148.467 17.1903 148.344 18.3856 148.344 19.745V20.993C148.344 22.3407 148.467 23.536 148.713 24.579C148.959 25.6102 149.316 26.4833 149.785 27.1981C150.266 27.9012 150.852 28.4344 151.543 28.7977C152.246 29.161 153.043 29.3427 153.934 29.3427C154.824 29.3427 155.609 29.161 156.289 28.7977C156.98 28.4344 157.561 27.9012 158.029 27.1981C158.51 26.4833 158.873 25.6102 159.119 24.579C159.365 23.536 159.488 22.3407 159.488 20.993ZM179.562 28.6219V14.1552H184.625V33.1747H179.861L179.562 28.6219ZM180.125 24.7196L181.619 24.6844C181.619 25.9501 181.473 27.1278 181.18 28.2177C180.887 29.2958 180.447 30.2333 179.861 31.0302C179.275 31.8153 178.537 32.4305 177.646 32.8759C176.756 33.3094 175.707 33.5262 174.5 33.5262C173.574 33.5262 172.719 33.3973 171.934 33.1395C171.16 32.87 170.492 32.454 169.93 31.8915C169.379 31.3173 168.945 30.5848 168.629 29.6942C168.324 28.7919 168.172 27.7079 168.172 26.4423V14.1552H173.234V26.4774C173.234 27.0399 173.299 27.5145 173.428 27.9012C173.568 28.288 173.762 28.6044 174.008 28.8505C174.254 29.0966 174.541 29.2723 174.869 29.3778C175.209 29.4833 175.584 29.536 175.994 29.536C177.037 29.536 177.857 29.3251 178.455 28.9032C179.064 28.4813 179.492 27.9071 179.738 27.1805C179.996 26.4423 180.125 25.6219 180.125 24.7196ZM197.246 33.5262C195.77 33.5262 194.445 33.2919 193.273 32.8231C192.102 32.3427 191.105 31.6805 190.285 30.8368C189.477 29.993 188.855 29.0145 188.422 27.9012C187.988 26.7762 187.771 25.5809 187.771 24.3153V23.6122C187.771 22.1708 187.977 20.8524 188.387 19.6571C188.797 18.4618 189.383 17.4247 190.145 16.5458C190.918 15.6669 191.855 14.993 192.957 14.5243C194.059 14.0438 195.301 13.8036 196.684 13.8036C198.031 13.8036 199.227 14.0262 200.27 14.4716C201.312 14.9169 202.186 15.5497 202.889 16.37C203.604 17.1903 204.143 18.1747 204.506 19.3231C204.869 20.4598 205.051 21.7255 205.051 23.12V25.2294H189.934V21.8544H200.076V21.4677C200.076 20.7645 199.947 20.1376 199.689 19.5868C199.443 19.0243 199.068 18.579 198.564 18.2509C198.061 17.9227 197.416 17.7587 196.631 17.7587C195.963 17.7587 195.389 17.9052 194.908 18.1981C194.428 18.4911 194.035 18.9012 193.73 19.4286C193.438 19.9559 193.215 20.577 193.062 21.2919C192.922 21.995 192.852 22.7684 192.852 23.6122V24.3153C192.852 25.077 192.957 25.7802 193.168 26.4247C193.391 27.0692 193.701 27.6259 194.1 28.0946C194.51 28.5634 195.002 28.9266 195.576 29.1844C196.162 29.4423 196.824 29.5712 197.562 29.5712C198.477 29.5712 199.326 29.3954 200.111 29.0438C200.908 28.6805 201.594 28.1356 202.168 27.4091L204.629 30.0809C204.23 30.6552 203.686 31.2059 202.994 31.7333C202.314 32.2606 201.494 32.6942 200.533 33.0341C199.572 33.3622 198.477 33.5262 197.246 33.5262ZM218.217 27.9188C218.217 27.5555 218.111 27.2274 217.9 26.9344C217.689 26.6415 217.297 26.3719 216.723 26.1259C216.16 25.868 215.346 25.6337 214.279 25.4227C213.318 25.2118 212.422 24.9481 211.59 24.6317C210.77 24.3036 210.055 23.911 209.445 23.454C208.848 22.9969 208.379 22.4579 208.039 21.8368C207.699 21.204 207.529 20.4833 207.529 19.6747C207.529 18.8778 207.699 18.1278 208.039 17.4247C208.391 16.7216 208.889 16.1005 209.533 15.5614C210.189 15.0106 210.986 14.5829 211.924 14.2782C212.873 13.9618 213.939 13.8036 215.123 13.8036C216.775 13.8036 218.193 14.0673 219.377 14.5946C220.572 15.1219 221.486 15.8485 222.119 16.7743C222.764 17.6884 223.086 18.7313 223.086 19.9032H218.023C218.023 19.411 217.918 18.9716 217.707 18.5848C217.508 18.1864 217.191 17.8759 216.758 17.6532C216.336 17.4188 215.785 17.3016 215.105 17.3016C214.543 17.3016 214.057 17.4012 213.646 17.6005C213.236 17.788 212.92 18.0458 212.697 18.3739C212.486 18.6903 212.381 19.0419 212.381 19.4286C212.381 19.7216 212.439 19.9852 212.557 20.2196C212.686 20.4423 212.891 20.6473 213.172 20.8348C213.453 21.0223 213.816 21.1981 214.262 21.3622C214.719 21.5145 215.281 21.6552 215.949 21.7841C217.32 22.0653 218.545 22.4344 219.623 22.8915C220.701 23.3368 221.557 23.9462 222.189 24.7196C222.822 25.4813 223.139 26.4833 223.139 27.7255C223.139 28.5692 222.951 29.3427 222.576 30.0458C222.201 30.7489 221.662 31.3641 220.959 31.8915C220.256 32.4071 219.412 32.8114 218.428 33.1044C217.455 33.3856 216.359 33.5262 215.141 33.5262C213.371 33.5262 211.871 33.2098 210.641 32.577C209.422 31.9442 208.496 31.1415 207.863 30.1688C207.242 29.1844 206.932 28.1766 206.932 27.1454H211.73C211.754 27.8368 211.93 28.3934 212.258 28.8153C212.598 29.2372 213.025 29.5419 213.541 29.7294C214.068 29.9169 214.637 30.0106 215.246 30.0106C215.902 30.0106 216.447 29.9227 216.881 29.7469C217.314 29.5594 217.643 29.3134 217.865 29.0087C218.1 28.6923 218.217 28.329 218.217 27.9188ZM235.742 14.1552V17.7411H224.668V14.1552H235.742ZM227.41 9.46179H232.473V27.4442C232.473 27.995 232.543 28.4169 232.684 28.7098C232.836 29.0028 233.059 29.2079 233.352 29.3251C233.645 29.4305 234.014 29.4833 234.459 29.4833C234.775 29.4833 235.057 29.4716 235.303 29.4481C235.561 29.413 235.777 29.3778 235.953 29.3427L235.971 33.0692C235.537 33.2098 235.068 33.3212 234.564 33.4032C234.061 33.4852 233.504 33.5262 232.895 33.5262C231.781 33.5262 230.809 33.3446 229.977 32.9813C229.156 32.6063 228.523 32.0087 228.078 31.1884C227.633 30.368 227.41 29.2899 227.41 27.954V9.46179Z" fill="black"/>
<path d="M10.3333 17.7083L13.9166 21.2917L21.0833 14.125" stroke="black" stroke-width="2" stroke-linecap="round" stroke-linejoin="round"/>
<path d="M15.7083 32.0417C23.6244 32.0417 30.0417 25.6244 30.0417 17.7083C30.0417 9.79225 23.6244 3.375 15.7083 3.375C7.79225 3.375 1.375 9.79225 1.375 17.7083C1.375 25.6244 7.79225 32.0417 15.7083 32.0417Z" stroke="black" stroke-width="2" stroke-linecap="round" stroke-linejoin="round"/>
<path d="M33.6251 35.6249L25.9209 27.9208" stroke="black" stroke-width="2" stroke-linecap="round" stroke-linejoin="round"/>
</svg>
